<mxfile host="app.diagrams.net" modified="2024-07-03T11:12:51.768Z" agent="Mozilla/5.0 (Windows NT 10.0; Win64; x64) AppleWebKit/537.36 (KHTML, like Gecko) Chrome/126.0.0.0 Safari/537.36" etag="p6QLcXGv8jFRl60xfekQ" version="24.6.4" type="github">
  <diagram name="PÃ¡gina-1" id="Syn2oAfHOVvyRiE3abJN">
    <mxGraphModel dx="1120" dy="426" grid="1" gridSize="10" guides="1" tooltips="1" connect="1" arrows="1" fold="1" page="1" pageScale="1" pageWidth="827" pageHeight="1169" math="0" shadow="0">
      <root>
        <mxCell id="0" />
        <mxCell id="1" parent="0" />
        <mxCell id="srfki-Rv-yzu-XFw1Iy5-51" style="edgeStyle=orthogonalEdgeStyle;rounded=0;orthogonalLoop=1;jettySize=auto;html=1;exitX=1;exitY=0.5;exitDx=0;exitDy=0;entryX=0;entryY=0.25;entryDx=0;entryDy=0;" edge="1" parent="1" source="srfki-Rv-yzu-XFw1Iy5-1" target="srfki-Rv-yzu-XFw1Iy5-3">
          <mxGeometry relative="1" as="geometry" />
        </mxCell>
        <mxCell id="srfki-Rv-yzu-XFw1Iy5-1" value="Client" style="rounded=1;whiteSpace=wrap;html=1;" vertex="1" parent="1">
          <mxGeometry x="100" y="110" width="120" height="60" as="geometry" />
        </mxCell>
        <mxCell id="srfki-Rv-yzu-XFw1Iy5-2" value="" style="endArrow=classic;html=1;rounded=0;exitX=1;exitY=0.5;exitDx=0;exitDy=0;" edge="1" parent="1" source="srfki-Rv-yzu-XFw1Iy5-3">
          <mxGeometry width="50" height="50" relative="1" as="geometry">
            <mxPoint x="390" y="250" as="sourcePoint" />
            <mxPoint x="360" y="110" as="targetPoint" />
          </mxGeometry>
        </mxCell>
        <mxCell id="srfki-Rv-yzu-XFw1Iy5-6" value="UseCase" style="rounded=1;whiteSpace=wrap;html=1;" vertex="1" parent="1">
          <mxGeometry x="480" y="190" width="120" height="60" as="geometry" />
        </mxCell>
        <mxCell id="srfki-Rv-yzu-XFw1Iy5-14" style="edgeStyle=orthogonalEdgeStyle;rounded=0;orthogonalLoop=1;jettySize=auto;html=1;exitX=1;exitY=0.5;exitDx=0;exitDy=0;entryX=0.5;entryY=0;entryDx=0;entryDy=0;" edge="1" parent="1" source="srfki-Rv-yzu-XFw1Iy5-3" target="srfki-Rv-yzu-XFw1Iy5-6">
          <mxGeometry relative="1" as="geometry" />
        </mxCell>
        <mxCell id="srfki-Rv-yzu-XFw1Iy5-3" value="Resource" style="rounded=1;whiteSpace=wrap;html=1;" vertex="1" parent="1">
          <mxGeometry x="330" y="30" width="190" height="110" as="geometry" />
        </mxCell>
        <mxCell id="srfki-Rv-yzu-XFw1Iy5-11" value="Request" style="text;html=1;align=center;verticalAlign=middle;resizable=0;points=[];autosize=1;strokeColor=none;fillColor=none;" vertex="1" parent="1">
          <mxGeometry x="260" y="20" width="70" height="30" as="geometry" />
        </mxCell>
        <mxCell id="srfki-Rv-yzu-XFw1Iy5-12" value="Injects dependencies" style="text;html=1;align=center;verticalAlign=middle;resizable=0;points=[];autosize=1;strokeColor=none;fillColor=none;" vertex="1" parent="1">
          <mxGeometry x="530" y="130" width="140" height="30" as="geometry" />
        </mxCell>
        <mxCell id="srfki-Rv-yzu-XFw1Iy5-17" style="edgeStyle=orthogonalEdgeStyle;rounded=0;orthogonalLoop=1;jettySize=auto;html=1;exitX=1;exitY=0.5;exitDx=0;exitDy=0;entryX=0.5;entryY=1;entryDx=0;entryDy=0;" edge="1" parent="1" source="srfki-Rv-yzu-XFw1Iy5-15" target="srfki-Rv-yzu-XFw1Iy5-6">
          <mxGeometry relative="1" as="geometry">
            <mxPoint x="530" y="260" as="targetPoint" />
          </mxGeometry>
        </mxCell>
        <mxCell id="srfki-Rv-yzu-XFw1Iy5-25" style="edgeStyle=orthogonalEdgeStyle;rounded=0;orthogonalLoop=1;jettySize=auto;html=1;exitX=0.5;exitY=1;exitDx=0;exitDy=0;entryX=0;entryY=0.5;entryDx=0;entryDy=0;" edge="1" parent="1" source="srfki-Rv-yzu-XFw1Iy5-15" target="srfki-Rv-yzu-XFw1Iy5-23">
          <mxGeometry relative="1" as="geometry" />
        </mxCell>
        <mxCell id="srfki-Rv-yzu-XFw1Iy5-15" value="Service" style="rounded=1;whiteSpace=wrap;html=1;" vertex="1" parent="1">
          <mxGeometry x="310" y="290" width="120" height="60" as="geometry" />
        </mxCell>
        <mxCell id="srfki-Rv-yzu-XFw1Iy5-20" value="Implements" style="text;html=1;align=center;verticalAlign=middle;resizable=0;points=[];autosize=1;strokeColor=none;fillColor=none;" vertex="1" parent="1">
          <mxGeometry x="450" y="320" width="90" height="30" as="geometry" />
        </mxCell>
        <mxCell id="srfki-Rv-yzu-XFw1Iy5-23" value="Port" style="rounded=1;whiteSpace=wrap;html=1;" vertex="1" parent="1">
          <mxGeometry x="470" y="410" width="120" height="60" as="geometry" />
        </mxCell>
        <mxCell id="srfki-Rv-yzu-XFw1Iy5-26" value="Injects dependencies" style="text;html=1;align=center;verticalAlign=middle;resizable=0;points=[];autosize=1;strokeColor=none;fillColor=none;" vertex="1" parent="1">
          <mxGeometry x="320" y="440" width="140" height="30" as="geometry" />
        </mxCell>
        <mxCell id="srfki-Rv-yzu-XFw1Iy5-46" style="edgeStyle=orthogonalEdgeStyle;rounded=0;orthogonalLoop=1;jettySize=auto;html=1;exitX=0.25;exitY=1;exitDx=0;exitDy=0;entryX=1;entryY=0.5;entryDx=0;entryDy=0;" edge="1" parent="1" source="srfki-Rv-yzu-XFw1Iy5-27" target="srfki-Rv-yzu-XFw1Iy5-23">
          <mxGeometry relative="1" as="geometry" />
        </mxCell>
        <mxCell id="srfki-Rv-yzu-XFw1Iy5-27" value="PersistenceService" style="rounded=1;whiteSpace=wrap;html=1;" vertex="1" parent="1">
          <mxGeometry x="630" y="250" width="220" height="120" as="geometry" />
        </mxCell>
        <mxCell id="srfki-Rv-yzu-XFw1Iy5-34" value="Repository" style="rounded=1;whiteSpace=wrap;html=1;" vertex="1" parent="1">
          <mxGeometry x="760" y="150" width="120" height="60" as="geometry" />
        </mxCell>
        <mxCell id="srfki-Rv-yzu-XFw1Iy5-40" style="edgeStyle=orthogonalEdgeStyle;rounded=0;orthogonalLoop=1;jettySize=auto;html=1;exitX=0.5;exitY=0;exitDx=0;exitDy=0;entryX=0;entryY=0.5;entryDx=0;entryDy=0;" edge="1" parent="1" source="srfki-Rv-yzu-XFw1Iy5-37" target="srfki-Rv-yzu-XFw1Iy5-34">
          <mxGeometry relative="1" as="geometry" />
        </mxCell>
        <mxCell id="srfki-Rv-yzu-XFw1Iy5-37" value="PersistenceMapper" style="rounded=1;whiteSpace=wrap;html=1;" vertex="1" parent="1">
          <mxGeometry x="650" y="260" width="120" height="30" as="geometry" />
        </mxCell>
        <mxCell id="srfki-Rv-yzu-XFw1Iy5-43" value="Implements" style="text;html=1;align=center;verticalAlign=middle;resizable=0;points=[];autosize=1;strokeColor=none;fillColor=none;" vertex="1" parent="1">
          <mxGeometry x="600" y="440" width="90" height="30" as="geometry" />
        </mxCell>
        <mxCell id="srfki-Rv-yzu-XFw1Iy5-33" value="Mapper" style="rounded=1;whiteSpace=wrap;html=1;" vertex="1" parent="1">
          <mxGeometry x="330" y="40" width="90" height="30" as="geometry" />
        </mxCell>
      </root>
    </mxGraphModel>
  </diagram>
</mxfile>
